<svg xmlns="http://www.w3.org/2000/svg" width="129" height="70" viewBox="0 0 129 70" fill="none">
  <path d="M10.6787 35.8476C10.6461 36.2141 10.6624 36.5808 10.7032 36.9473C10.7276 37.1265 10.7358 37.3138 10.7602 37.493C10.8335 38.2668 11.0127 39.0244 11.2815 39.7493C11.4118 40.0914 11.5666 40.4254 11.7539 40.743C11.9494 41.077 12.1775 41.3866 12.4544 41.6717C12.9676 42.193 13.5785 42.5433 14.2953 42.6981C14.556 42.7551 14.8166 42.7794 15.0854 42.7876C15.7045 42.812 16.3073 42.7225 16.8937 42.5352C17.9201 42.2012 18.7265 41.574 19.3129 40.6617C19.3781 40.5558 19.4188 40.4418 19.4188 40.3115C19.4188 39.7169 19.427 39.1303 19.4188 38.5356C19.4107 38.1121 19.3618 37.6803 19.2233 37.2731C19.1908 37.1753 19.1582 37.0777 19.1174 36.9881C18.979 36.6786 18.7753 36.4341 18.4414 36.3201C18.4006 36.3038 18.3681 36.2875 18.3355 36.263C18.3029 36.2386 18.2948 36.198 18.2948 36.1572C18.2948 36.1084 18.311 36.0757 18.3599 36.0675C18.4414 36.0513 18.5228 36.0351 18.5961 36.0351C19.1256 36.0351 19.6551 36.0351 20.1927 36.0351C20.6814 36.0351 21.1701 36.0351 21.6588 36.0351C21.7403 36.0351 21.8218 36.0512 21.9032 36.0594C21.9521 36.0675 21.9684 36.1002 21.9765 36.1409C21.9847 36.1816 21.9847 36.2223 21.9521 36.2467C21.8869 36.2874 21.8136 36.3201 21.7403 36.3527C21.5041 36.4586 21.3412 36.6377 21.2271 36.8576C21.0968 37.0938 21.0154 37.3465 20.9665 37.6071C20.8932 37.9655 20.8524 38.332 20.8606 38.6985C20.8687 39.2117 20.8687 39.7168 20.8606 40.23C20.8524 40.5965 20.9095 40.9631 20.9828 41.3215C21.0153 41.5007 21.0805 41.6717 21.1538 41.8428C21.2923 42.1767 21.5041 42.4375 21.8706 42.5434C21.9032 42.5515 21.9358 42.584 21.9684 42.6084C21.9847 42.6165 21.9928 42.641 21.9928 42.6573C22.001 42.7062 21.9847 42.7387 21.9521 42.7631C21.9358 42.7712 21.9195 42.7876 21.8951 42.7876C21.8136 42.7957 21.7321 42.812 21.6507 42.812C21.0561 42.812 20.4696 42.812 19.875 42.812C19.7935 42.812 19.7121 42.8039 19.6306 42.7957C19.5573 42.7876 19.4677 42.7143 19.4677 42.6492C19.4596 42.4292 19.4514 42.2011 19.4351 41.9812C19.4351 41.9486 19.4025 41.908 19.3781 41.8835C19.37 41.8672 19.3455 41.8591 19.3211 41.8591C19.3048 41.8591 19.2804 41.8672 19.2641 41.8754C19.1745 41.9242 19.093 41.9812 19.0034 42.0382C18.2785 42.5107 17.4802 42.7959 16.6249 42.9506C15.9733 43.0647 15.3217 43.089 14.67 43.0401C14.0102 42.9912 13.3912 42.7958 12.8047 42.4944C12.1449 42.1605 11.5747 41.6961 11.086 41.1422C10.3448 40.295 9.85604 39.3259 9.55465 38.2425C9.294 37.3058 9.22069 36.3528 9.32658 35.3916C9.4732 34.0476 9.93749 32.8176 10.7439 31.7261C11.1675 31.1478 11.6806 30.6509 12.2834 30.2518C12.8862 29.8526 13.5459 29.592 14.2546 29.4535C14.3931 29.4291 14.5397 29.4127 14.6782 29.4046C15.1913 29.3639 15.7045 29.372 16.2095 29.4291C17.1544 29.5349 18.0422 29.8038 18.8568 30.3088C19.3292 30.6021 19.7528 30.9522 20.1112 31.3757C20.1927 31.4735 20.2415 31.5795 20.2415 31.7098C20.2415 32.1171 20.2334 32.5244 20.2252 32.9316C20.2252 32.9968 20.1845 33.0538 20.1275 33.0701C20.0623 33.0863 19.9972 33.0619 19.9646 33.0211C19.932 32.9723 19.8994 32.9153 19.875 32.8664C19.7854 32.6628 19.7039 32.451 19.6062 32.2474C19.3618 31.7505 19.036 31.3107 18.6287 30.9279C18.0341 30.3659 17.3417 30.0074 16.5516 29.8119C15.9081 29.649 15.2565 29.6409 14.6049 29.7061C14.1161 29.7549 13.6518 29.9259 13.2283 30.1865C12.8373 30.4227 12.5115 30.7161 12.2182 31.0745C11.8272 31.555 11.534 32.0926 11.3222 32.6709C11.1349 33.1678 10.9964 33.6811 10.8987 34.2024C10.7602 34.7481 10.7195 35.2937 10.6787 35.8476Z" fill="white"/>
  <path d="M25.0148 31.3515C25.0148 32.7362 25.0148 34.129 25.0148 35.5137C25.0148 35.6766 25.0229 35.8396 25.0311 36.0025C25.0311 36.084 25.1125 36.1654 25.1777 36.1735C25.2347 36.1817 25.2999 36.1898 25.3569 36.1898C25.8049 36.1898 26.2529 36.1898 26.7009 36.1898C27.0674 36.1898 27.434 36.149 27.7924 36.0512C28.0123 35.9942 28.2241 35.9129 28.4115 35.7989C28.6232 35.6685 28.7943 35.4973 28.8676 35.2448C28.8839 35.1878 28.9083 35.1309 28.9572 35.0901C28.9979 35.0575 29.1038 35.0657 29.112 35.1146C29.1201 35.1553 29.1446 35.1878 29.1446 35.2285C29.1527 35.4973 29.1527 35.7582 29.1527 36.027C29.1527 36.4587 29.1527 36.8821 29.1527 37.3138C29.1527 37.3953 29.1446 37.4768 29.112 37.5501C29.0957 37.5989 29.0712 37.6153 29.0142 37.6071C28.9735 37.6071 28.9328 37.599 28.9083 37.5582C28.8758 37.5094 28.8595 37.4442 28.835 37.3872C28.7536 37.1673 28.5988 37.0043 28.4033 36.8902C28.3137 36.8414 28.2241 36.7844 28.1345 36.7518C27.9227 36.6704 27.7109 36.5971 27.491 36.5645C27.0837 36.4993 26.6846 36.4504 26.2773 36.4585C25.9108 36.4667 25.5442 36.4422 25.1777 36.4748C25.1125 36.483 25.0311 36.5646 25.0148 36.6379C25.0148 36.6786 24.9985 36.7193 24.9985 36.76C24.9985 36.8659 24.9903 36.9635 24.9903 37.0694V39.3991C24.9903 40.2544 24.9903 41.1096 24.9903 41.973C24.9903 42.1196 25.0066 42.2581 25.0148 42.3966C25.0148 42.4618 25.1125 42.5434 25.1858 42.5515C25.2673 42.5515 25.3487 42.5595 25.4302 42.5595C26.2447 42.5595 27.0674 42.5595 27.882 42.5595C27.939 42.5595 28.0042 42.5595 28.0612 42.5595C28.3544 42.5676 28.6232 42.4782 28.8758 42.3397C29.0712 42.2338 29.2586 42.0954 29.4215 41.9406C29.8939 41.4926 30.2361 40.9711 30.4153 40.3521C30.4397 40.2706 30.456 40.1891 30.4886 40.1158C30.5049 40.0832 30.5537 40.0671 30.5863 40.0589C30.6352 40.0427 30.6678 40.0671 30.6841 40.1079C30.7003 40.1486 30.7166 40.1811 30.7248 40.2218C30.7329 40.2788 30.7329 40.344 30.7329 40.4091C30.7329 41.0608 30.7329 41.7124 30.7329 42.3721C30.7329 42.4699 30.7166 42.5759 30.7085 42.6736C30.7085 42.7143 30.6352 42.8039 30.5945 42.8039C30.5374 42.812 30.4723 42.8283 30.4153 42.8283C30.2279 42.8365 30.0487 42.8365 29.8614 42.8365H26.5543C25.3488 42.8365 24.1432 42.8365 22.9458 42.8365C22.8074 42.8365 22.6607 42.8528 22.5223 42.812C22.4734 42.7957 22.4571 42.7714 22.4489 42.7307C22.4408 42.69 22.4408 42.641 22.4815 42.6247C22.5548 42.584 22.6282 42.5596 22.7015 42.5271C22.897 42.4375 23.0354 42.299 23.1495 42.1279C23.2961 41.8999 23.3857 41.6554 23.4427 41.3947C23.516 41.0526 23.5812 40.7105 23.573 40.3684C23.573 40.181 23.573 40.0019 23.573 39.8145C23.573 37.4442 23.573 35.082 23.573 32.7117C23.573 32.5244 23.573 32.3452 23.573 32.1579C23.573 31.8076 23.5079 31.4655 23.4427 31.1315C23.402 30.936 23.3287 30.7404 23.2391 30.553C23.0924 30.2679 22.897 30.048 22.5793 29.9584C22.5386 29.9503 22.506 29.9178 22.4734 29.8934C22.4327 29.869 22.4327 29.8281 22.4408 29.7793C22.449 29.7385 22.4734 29.7061 22.5223 29.6979C22.6037 29.6816 22.6852 29.6735 22.7666 29.6735C23.1983 29.6653 23.6219 29.6653 24.0536 29.6653C25.3406 29.6653 26.6276 29.6572 27.9146 29.6572C28.6477 29.6572 29.3889 29.6408 30.122 29.6408C30.2442 29.6408 30.3664 29.649 30.4886 29.649C30.6596 29.6571 30.7329 29.7468 30.7329 29.926C30.7329 29.9505 30.7329 29.9666 30.7329 29.991C30.7329 30.0155 30.7329 30.0318 30.7329 30.0563C30.7329 30.7323 30.7329 31.4003 30.7329 32.0763C30.7329 32.1578 30.7166 32.2393 30.7085 32.3207C30.7003 32.3696 30.6678 32.3858 30.627 32.3939C30.5782 32.4021 30.4967 32.3696 30.4804 32.3207C30.4641 32.28 30.456 32.2392 30.4397 32.2066C30.4234 32.1496 30.4071 32.0844 30.3908 32.0274C30.1953 31.4491 29.8695 30.9685 29.4378 30.553C29.2912 30.4146 29.1283 30.2924 28.9491 30.1865C28.721 30.0481 28.4685 29.9584 28.1997 29.9421C28.1019 29.934 27.996 29.926 27.8983 29.926C27.0593 29.926 26.2285 29.926 25.3895 29.926C25.308 29.926 25.2266 29.9503 25.1533 29.9584C25.1125 29.9666 25.0311 30.0482 25.0311 30.0889C25.0229 30.1703 25.0066 30.2518 25.0066 30.3333C25.0148 30.6591 25.0148 31.0012 25.0148 31.3515Z" fill="white"/>
  <path d="M41.8434 41.0853V32.6954C41.8434 32.4918 41.8434 32.2881 41.8352 32.0845C41.8108 31.6772 41.7619 31.27 41.6397 30.879C41.599 30.7405 41.542 30.6102 41.4768 30.4799C41.3384 30.2192 41.1592 30.0075 40.8578 29.9179C40.8008 29.9016 40.7519 29.8607 40.703 29.82C40.6867 29.8119 40.6867 29.7792 40.6867 29.7629C40.6867 29.7222 40.703 29.6897 40.7356 29.6653C40.7519 29.6572 40.7682 29.649 40.7926 29.6408C40.8496 29.6327 40.9148 29.6164 40.9718 29.6164C41.6479 29.6164 42.3158 29.6164 42.9919 29.6164C43.0489 29.6164 43.1141 29.6327 43.1711 29.649C43.2037 29.6653 43.2444 29.6978 43.2525 29.7303C43.2607 29.7629 43.2363 29.8037 43.2118 29.8363C43.1711 29.8852 43.1141 29.9016 43.0571 29.926C42.829 29.9912 42.6742 30.1458 42.5439 30.3412C42.4054 30.5449 42.324 30.7812 42.2669 31.0174C42.1855 31.3351 42.1285 31.6527 42.1285 31.9866C42.1285 32.1903 42.1203 32.3939 42.1203 32.5976C42.1203 35.0249 42.1203 37.4524 42.1203 39.8879C42.1203 40.1567 42.1203 40.4174 42.1366 40.6862C42.1611 41.0527 42.2344 41.411 42.3647 41.7612C42.3973 41.859 42.4461 41.9486 42.495 42.0382C42.6253 42.2745 42.8127 42.4619 43.0815 42.5515C43.1385 42.5678 43.1955 42.5921 43.2281 42.6492C43.2607 42.6899 43.2363 42.7876 43.1874 42.8039C43.1304 42.8283 43.0733 42.8365 43.0082 42.8365C42.3973 42.8365 41.7864 42.8446 41.1754 42.8446C41.151 42.8446 41.1347 42.8446 41.1184 42.8365C41.037 42.8202 40.9637 42.7958 40.9066 42.7225C40.7926 42.5515 40.6786 42.3885 40.5645 42.2174C38.7074 39.3665 36.842 36.5074 34.9849 33.6565C34.4147 32.7849 33.8526 31.9134 33.2825 31.0418C33.2173 30.936 33.144 30.8463 33.0707 30.7485C33.0625 30.7322 33.0381 30.7243 33.0218 30.7243C32.9811 30.7161 32.9567 30.7486 32.9567 30.7974C32.9567 30.9848 32.9485 31.1641 32.9485 31.3515V35.7581C32.9485 37.1265 32.9485 38.495 32.9485 39.8635C32.9485 40.0834 32.9485 40.3113 32.9567 40.5394C32.9811 40.9304 33.03 41.3133 33.1684 41.6799C33.201 41.7776 33.2417 41.8671 33.2825 41.9649C33.4209 42.25 33.6164 42.478 33.9341 42.5758C33.9748 42.5839 34.0074 42.6084 34.04 42.6328C34.0807 42.6573 34.0807 42.6981 34.0807 42.7388C34.0807 42.7796 34.0563 42.812 34.0156 42.8283C33.9748 42.8365 33.9341 42.8528 33.9015 42.8528C33.1684 42.8528 32.4353 42.8528 31.6941 42.8446C31.6534 42.8446 31.6126 42.8202 31.5801 42.8039C31.5393 42.7876 31.523 42.747 31.5312 42.7062C31.5312 42.6899 31.5475 42.6654 31.5556 42.6492C31.5964 42.6003 31.6534 42.5758 31.7104 42.5595C31.9792 42.4699 32.1584 42.2826 32.2969 42.0464C32.4028 41.8509 32.4924 41.6391 32.5331 41.4192C32.5982 41.0771 32.6716 40.7431 32.6716 40.3928C32.6716 40.2136 32.6716 40.0263 32.6716 39.839V32.6709C32.6716 32.508 32.6634 32.345 32.6716 32.1821C32.6797 31.8074 32.6064 31.4492 32.5412 31.0908C32.4924 30.8545 32.4028 30.6183 32.2806 30.4065C32.1502 30.1947 31.9873 30.0154 31.743 29.934C31.686 29.9177 31.6289 29.8852 31.5801 29.8445C31.5556 29.82 31.523 29.7711 31.5312 29.7385C31.5312 29.7059 31.5719 29.6734 31.6045 29.649C31.6371 29.6246 31.6778 29.6082 31.7185 29.6082C31.8814 29.6001 32.0688 29.6001 32.248 29.6001C32.6145 29.6001 32.9811 29.6001 33.3476 29.6001C33.4535 29.6001 33.5513 29.6082 33.649 29.6164C33.7305 29.6245 33.8038 29.6733 33.8526 29.7385C33.9585 29.8851 34.0644 30.0399 34.1622 30.1947C35.441 32.1577 36.7199 34.1289 38.0068 36.092C39.1635 37.8677 40.3283 39.6516 41.485 41.4273C41.5501 41.5332 41.599 41.6392 41.7049 41.7125C41.7212 41.7206 41.7456 41.7207 41.7619 41.7207C41.7782 41.7207 41.8108 41.7125 41.8108 41.6962C41.8271 41.6555 41.8352 41.6146 41.8352 41.5739C41.8434 41.411 41.8434 41.2482 41.8434 41.0853Z" fill="white"/>
  <path d="M46.4048 30.4962C46.4048 30.9442 46.4048 31.3921 46.4048 31.8401C46.4048 33.1026 46.4048 34.3733 46.4048 35.6358C46.4048 35.7743 46.3886 35.9209 46.4374 36.0594C46.4456 36.092 46.4863 36.1328 46.5189 36.1491C46.5759 36.1735 46.6411 36.1817 46.6981 36.1817C47.1868 36.1817 47.6755 36.1817 48.1643 36.1817C48.5145 36.1817 48.8566 36.1247 49.1906 36.0351C49.3861 35.9863 49.5734 35.9048 49.7526 35.7989C49.9644 35.6685 50.1436 35.5055 50.2251 35.2611C50.2414 35.2041 50.274 35.1471 50.3065 35.0983C50.331 35.0738 50.3717 35.0493 50.4043 35.0412C50.445 35.0331 50.5346 35.1146 50.5346 35.1472C50.5346 35.1716 50.5428 35.188 50.5428 35.2124C50.5428 35.2532 50.5509 35.2938 50.5509 35.3345C50.5509 35.9862 50.5509 36.6377 50.5509 37.2975C50.5509 37.379 50.5265 37.4605 50.5183 37.5338C50.5102 37.5745 50.4776 37.6071 50.4287 37.6071C50.388 37.6071 50.3391 37.599 50.3228 37.5827C50.2821 37.542 50.2495 37.485 50.2332 37.428C50.1355 37.1347 49.9237 36.9555 49.663 36.8171C49.4268 36.6949 49.1743 36.6134 48.9137 36.5727C48.5145 36.5075 48.1073 36.4504 47.7 36.4667C47.3334 36.4748 46.9669 36.4748 46.6003 36.483C46.5026 36.483 46.4211 36.5807 46.413 36.6866C46.413 36.7273 46.4048 36.7682 46.4048 36.8089C46.4048 36.8741 46.4048 36.9311 46.4048 36.9962C46.4048 38.6905 46.4048 40.3848 46.4048 42.079C46.4048 42.1849 46.413 42.2825 46.4211 42.3803C46.4211 42.4617 46.4945 42.5434 46.5678 42.5515C46.6492 42.5597 46.7307 42.5676 46.8121 42.5676C47.6511 42.5676 48.4901 42.5676 49.3209 42.5676C49.3617 42.5676 49.4024 42.5676 49.4431 42.5676C49.8015 42.5758 50.1192 42.4455 50.4206 42.2582C50.6324 42.1279 50.8116 41.9649 50.9826 41.7857C51.3736 41.354 51.6831 40.8817 51.8134 40.3115C51.8297 40.23 51.8623 40.1567 51.9112 40.0916C51.9356 40.059 52.0497 40.059 52.0741 40.0997C52.0985 40.1323 52.1148 40.1729 52.123 40.2055C52.1311 40.2625 52.1393 40.3277 52.1393 40.3847C52.1393 41.0608 52.1393 41.7287 52.1393 42.4048C52.1393 42.4862 52.1311 42.5677 52.123 42.6492C52.1148 42.7225 52.0334 42.812 51.9682 42.812C51.8216 42.8202 51.6831 42.8365 51.5446 42.8365C50.4613 42.8365 49.378 42.8365 48.2946 42.8365H47.9281C46.7633 42.8365 45.5984 42.8365 44.4336 42.8365C44.2707 42.8365 44.1078 42.8283 43.9449 42.812C43.9042 42.812 43.8716 42.7796 43.8553 42.7388C43.8309 42.6981 43.8635 42.6084 43.9123 42.5839C43.9286 42.5758 43.9449 42.5676 43.9694 42.5595C43.9856 42.5513 44.0101 42.5434 44.0264 42.5352C44.3115 42.4293 44.4988 42.2174 44.6291 41.9567C44.7839 41.639 44.8816 41.3051 44.9142 40.963C44.9387 40.7023 44.9468 40.4335 44.955 40.1647C44.9631 39.8552 44.955 39.5539 44.955 39.2444C44.955 36.9962 44.955 34.7562 44.955 32.5081C44.955 32.1822 44.9468 31.8565 44.9142 31.5307C44.8816 31.2293 44.8083 30.9278 44.6861 30.6509C44.6454 30.5613 44.5965 30.4635 44.5477 30.382C44.4418 30.2028 44.287 30.0643 44.0997 29.9829C44.0264 29.9503 43.9368 29.9422 43.8879 29.8689C43.8797 29.8526 43.8635 29.8363 43.8635 29.82C43.8635 29.7711 43.8716 29.7387 43.9042 29.7142C43.9531 29.6735 44.0182 29.6734 44.0752 29.6653C44.4825 29.6572 44.8898 29.6571 45.2971 29.649C46.6003 29.649 47.9118 29.6408 49.215 29.6408C49.9481 29.6408 50.6894 29.6245 51.4225 29.6245C51.5691 29.6245 51.7076 29.6245 51.8542 29.6327C51.8949 29.6327 51.9356 29.649 51.9764 29.649C52.0497 29.6571 52.1311 29.7467 52.1393 29.8119C52.1474 29.877 52.1556 29.934 52.1556 29.991C52.1556 30.6834 52.1556 31.3758 52.1556 32.0763C52.1556 32.1578 52.1556 32.2393 52.1148 32.3126C52.0985 32.3452 52.066 32.3858 52.0252 32.3858C51.9845 32.3858 51.9519 32.3696 51.9112 32.3534C51.8949 32.3452 51.8868 32.3207 51.8786 32.3044C51.8542 32.2311 51.8216 32.1496 51.7972 32.0763C51.5935 31.4084 51.2188 30.8626 50.6894 30.4146C50.5835 30.325 50.4613 30.2435 50.3391 30.1702C50.0947 30.0155 49.826 29.9341 49.5327 29.9097C49.4268 29.9016 49.3291 29.9016 49.2232 29.9016C48.4494 29.9016 47.6755 29.9016 46.8936 29.9016C46.8284 29.9016 46.7714 29.9016 46.7062 29.9016C46.4782 29.9097 46.4049 29.9747 46.3967 30.1865C46.4049 30.2924 46.4048 30.3984 46.4048 30.4962Z" fill="white"/>
  <path d="M57.9226 35.4242C57.9226 36.9148 57.9226 38.4055 57.9226 39.8961C57.9226 40.1649 57.9307 40.4255 57.9389 40.6943C57.947 41.0038 58.0285 41.297 58.1099 41.5902C58.1343 41.6879 58.1751 41.7858 58.2158 41.8754C58.3624 42.2012 58.5823 42.4699 58.9407 42.5676C58.9815 42.5758 59.0059 42.6084 59.0303 42.641C59.0629 42.6899 59.0385 42.7876 58.9896 42.7957C58.9489 42.8039 58.9163 42.8202 58.8756 42.8283C58.7941 42.8365 58.7127 42.8365 58.6312 42.8365C57.6945 42.8365 56.7496 42.8365 55.8129 42.8365C55.6907 42.8365 55.5685 42.8446 55.4463 42.8039C55.3975 42.7876 55.3812 42.7633 55.373 42.7225C55.373 42.6818 55.373 42.641 55.4056 42.6165C55.4545 42.584 55.5115 42.5596 55.5685 42.5352C55.8047 42.4375 55.9839 42.2745 56.098 42.0464C56.1713 41.8998 56.2446 41.7531 56.2935 41.5984C56.3668 41.3621 56.4238 41.126 56.4401 40.8816C56.4645 40.5966 56.4727 40.3114 56.4727 40.0263C56.4727 38.943 56.4727 37.8596 56.4727 36.7844C56.4727 34.7644 56.4727 32.7443 56.4727 30.7243C56.4727 30.5206 56.4645 30.317 56.4564 30.1133C56.4564 30.0156 56.3586 29.9342 56.2527 29.926C55.9025 29.9016 55.5604 29.9016 55.2101 29.926C54.9413 29.9423 54.6888 30.0236 54.4607 30.1621C54.2815 30.268 54.1186 30.3822 53.972 30.5288C53.524 30.9605 53.1738 31.4573 52.9946 32.06C52.962 32.1578 52.9294 32.2556 52.8887 32.3452C52.8724 32.3859 52.7746 32.4102 52.7339 32.3858C52.6932 32.3695 52.6687 32.3452 52.6606 32.3044C52.6524 32.2393 52.6361 32.1823 52.6361 32.1253C52.6361 31.4085 52.6361 30.6997 52.6361 29.9829C52.6361 29.9259 52.6524 29.8607 52.6606 29.8037C52.6606 29.763 52.742 29.6816 52.7828 29.6735C52.8398 29.6653 52.9049 29.649 52.962 29.649C53.1412 29.6409 53.3285 29.6408 53.5159 29.6408H60.9282C61.1482 29.6408 61.3763 29.6246 61.5962 29.6653C61.6369 29.6734 61.7183 29.7467 61.7265 29.7874C61.7265 29.8037 61.7428 29.8282 61.7428 29.8445C61.7509 29.9096 61.7509 29.9666 61.7509 30.0318C61.7509 30.7242 61.7509 31.4166 61.7509 32.1171C61.7509 32.1986 61.7509 32.28 61.7102 32.3534C61.6858 32.3941 61.6613 32.4102 61.6125 32.4021C61.5717 32.4021 61.5229 32.3941 61.5066 32.3534C61.4577 32.223 61.417 32.0846 61.3681 31.9461C61.1726 31.4003 60.8468 30.9361 60.4232 30.5369C60.2848 30.4066 60.1381 30.3006 59.9834 30.2028C59.7309 30.0481 59.4702 29.9505 59.177 29.9342C58.8104 29.9179 58.4439 29.9014 58.0773 29.9503C58.004 29.9584 57.9307 30.04 57.9226 30.1215C57.9226 30.203 57.9063 30.2842 57.9063 30.3657C57.9063 30.5286 57.9063 30.6916 57.9063 30.8545V35.4242H57.9226Z" fill="white"/>
  <path d="M64.667 32.5325C64.667 35.0006 64.667 37.4686 64.667 39.9366C64.667 40.2054 64.6752 40.4661 64.6915 40.7349C64.7159 41.0851 64.7892 41.4191 64.9114 41.7449C64.9277 41.7856 64.9358 41.8265 64.9521 41.8591C65.0987 42.1849 65.3024 42.4536 65.6689 42.5595C65.6852 42.5676 65.7015 42.5758 65.7259 42.5839C65.7748 42.6084 65.8155 42.6981 65.783 42.7388C65.7585 42.7714 65.7259 42.8039 65.6934 42.812C65.5956 42.8283 65.4897 42.8283 65.392 42.8283C64.9195 42.8283 64.4552 42.8283 63.9828 42.8283C63.4289 42.8283 62.8832 42.8283 62.3293 42.8283C62.2722 42.8283 62.2152 42.8038 62.1582 42.7794C62.1419 42.7713 62.1338 42.747 62.1338 42.7307C62.1093 42.69 62.1256 42.6491 62.1501 42.6165C62.1908 42.5677 62.2478 42.5515 62.3048 42.5271C62.5899 42.4212 62.7773 42.2092 62.8994 41.9486C63.0542 41.6309 63.1438 41.2969 63.1764 40.9548C63.2171 40.5883 63.2253 40.2219 63.2253 39.8553C63.2253 37.6479 63.2253 35.4485 63.2253 33.2411C63.2253 32.9723 63.2334 32.7116 63.2253 32.4428C63.2171 32.1333 63.2008 31.832 63.1845 31.5225C63.1601 31.1967 63.0624 30.8789 62.9402 30.5775C62.9239 30.5368 62.9076 30.5043 62.8913 30.4717C62.7528 30.211 62.5655 29.9993 62.2723 29.9097C62.2152 29.8934 62.1664 29.8526 62.1256 29.8037C62.1175 29.7874 62.1012 29.7629 62.1093 29.7466C62.1256 29.7141 62.1419 29.6816 62.1664 29.649C62.1745 29.6327 62.2071 29.6327 62.2234 29.6327C62.2804 29.6245 62.3456 29.6082 62.4026 29.6082C63.4452 29.6082 64.4878 29.6082 65.5223 29.6082C65.5793 29.6082 65.6445 29.6245 65.7015 29.6327C65.7422 29.6408 65.7748 29.6735 65.7911 29.7142C65.8074 29.7631 65.7667 29.8526 65.7259 29.8689C65.6852 29.8852 65.6526 29.9016 65.6119 29.9179C65.3838 29.983 65.2291 30.1378 65.0987 30.3251C64.9684 30.5125 64.887 30.7243 64.8299 30.936C64.7485 31.2293 64.6915 31.5306 64.6833 31.8401C64.667 32.0844 64.667 32.3045 64.667 32.5325Z" fill="white"/>
  <path d="M67.4935 39.8635C67.5016 38.8208 67.4935 37.7782 67.4935 36.7437C67.4935 35.3589 67.4935 33.966 67.4935 32.5812C67.4935 32.2554 67.4772 31.9297 67.4609 31.6038C67.4446 31.2943 67.355 31.0012 67.2491 30.7161C67.2247 30.6428 67.184 30.5695 67.1514 30.4962C67.0129 30.2355 66.8337 30.0236 66.5323 29.934C66.4753 29.9177 66.4265 29.877 66.3939 29.8282C66.3694 29.7956 66.402 29.6816 66.4427 29.6735C66.4672 29.6653 66.4835 29.6572 66.4997 29.6572C66.5812 29.649 66.6627 29.6327 66.7441 29.6327C67.7216 29.6327 68.7072 29.6327 69.6846 29.6327C69.7905 29.6327 69.8883 29.6409 69.986 29.6735C70.0268 29.6897 70.0593 29.7956 70.0349 29.8282C70.0186 29.8445 70.0105 29.8608 69.9942 29.8689C69.9616 29.8934 69.929 29.9179 69.8883 29.926C69.595 30.0156 69.4077 30.2274 69.2692 30.488C69.09 30.8383 68.9923 31.2128 68.9597 31.6038C68.9352 31.8889 68.9271 32.1741 68.9271 32.4591C68.9271 34.129 68.9271 35.8069 68.9271 37.4767C68.9271 38.0306 68.9353 38.5764 68.9353 39.1302C68.9353 39.1791 68.9597 39.2118 69.0004 39.2118C69.0167 39.2118 69.0411 39.2036 69.0493 39.1873C69.0656 39.1792 69.0819 39.1547 69.09 39.1384C69.1226 39.0895 69.1552 39.0326 69.1878 38.9837C70.4585 36.7926 71.7292 34.6095 73.008 32.4265C73.2442 32.0193 73.4153 31.5795 73.5456 31.1315C73.6189 30.879 73.6433 30.61 73.6108 30.3412C73.5945 30.1702 73.5293 30.0317 73.3664 29.9503C73.3175 29.9258 73.2605 29.8852 73.2198 29.8445C73.1953 29.82 73.1872 29.7711 73.1953 29.7385C73.2035 29.6978 73.2361 29.6734 73.2768 29.6572C73.3175 29.649 73.3582 29.6327 73.399 29.6327C74.0343 29.6327 74.6615 29.6327 75.2969 29.6327C75.3376 29.6327 75.3783 29.649 75.4109 29.6653C75.4435 29.6816 75.4842 29.7141 75.4924 29.7466C75.5005 29.7792 75.4679 29.8201 75.4435 29.8526C75.4028 29.9015 75.3457 29.9177 75.2887 29.9421C75.1095 30.0073 74.9629 30.1051 74.8244 30.2354C74.6452 30.3984 74.4823 30.5856 74.3357 30.7811C74.1239 31.0581 73.9284 31.3432 73.7574 31.6446C73.2116 32.5813 72.674 33.518 72.1283 34.4548C72.0957 34.5036 72.0713 34.5606 72.0468 34.6176C72.0224 34.6746 72.0224 34.74 72.0468 34.797C72.1039 34.9273 72.169 35.0495 72.2423 35.1798C72.9998 36.6053 73.7574 38.0226 74.5068 39.448C74.7023 39.8064 74.8896 40.1728 75.077 40.5312C75.2236 40.8245 75.3783 41.1096 75.5575 41.3866C75.6879 41.5983 75.8263 41.7938 75.9811 41.9812C76.1929 42.2337 76.4291 42.4536 76.7468 42.5676C76.7631 42.5758 76.7875 42.5839 76.7956 42.6002C76.8282 42.6328 76.8364 42.6655 76.8364 42.7062C76.8364 42.7551 76.8201 42.7876 76.7712 42.7957C76.7142 42.812 76.649 42.8283 76.592 42.8283C75.6145 42.8283 74.629 42.8283 73.6515 42.8283C73.6108 42.8283 73.57 42.8283 73.5293 42.812C73.4967 42.7957 73.4641 42.7714 73.4397 42.7388C73.4153 42.6981 73.4316 42.6573 73.456 42.6247C73.4967 42.5758 73.5537 42.5596 73.6108 42.5271C73.8307 42.413 73.9366 42.2255 73.9529 41.9893C73.9773 41.6798 73.9529 41.3785 73.8633 41.0853C73.7818 40.8328 73.6841 40.5883 73.5619 40.3521C73.3908 40.0263 73.2198 39.7005 73.0487 39.3747C72.5356 38.4053 72.0142 37.4278 71.4929 36.4585C71.4359 36.3526 71.3708 36.2468 71.3056 36.1491C71.2812 36.1002 71.1834 36.1083 71.1508 36.1491C71.102 36.2142 71.0531 36.2794 71.0124 36.3527C70.3689 37.4605 69.7172 38.5765 69.0737 39.6843C69.0493 39.7169 69.033 39.7575 69.0086 39.7901C68.9597 39.8797 68.9271 39.9775 68.9271 40.0834C68.9108 40.3685 68.919 40.6534 68.9515 40.9385C68.9841 41.2481 69.0656 41.5414 69.1796 41.8265C69.2122 41.8998 69.2448 41.9731 69.2855 42.0464C69.4077 42.2663 69.5788 42.4375 69.815 42.5352C69.872 42.5596 69.929 42.584 69.9779 42.6165C70.0186 42.641 70.0186 42.6818 70.0186 42.7225C70.0186 42.7714 69.9942 42.7957 69.9534 42.812C69.8557 42.8446 69.7498 42.8446 69.6521 42.8446C69.1633 42.8446 68.6746 42.8446 68.1859 42.8446V42.8365C67.6564 42.8365 67.127 42.8365 66.5893 42.8365C66.5323 42.8365 66.4753 42.812 66.4183 42.7876C66.402 42.7794 66.402 42.7551 66.3939 42.7388C66.3694 42.6981 66.3857 42.6654 66.4183 42.6247C66.459 42.5758 66.5161 42.5597 66.5731 42.5434C66.8663 42.4456 67.0536 42.2418 67.184 41.973C67.3469 41.639 67.4365 41.2808 67.4609 40.9143C67.4854 40.564 67.4935 40.2137 67.4935 39.8635Z" fill="white"/>
  <path d="M2.72874 50.249H9.8316C10.0352 50.249 10.2389 50.2571 10.4425 50.2571C10.5565 50.2571 10.6299 50.3304 10.6706 50.4281C10.7357 50.5747 10.8009 50.7296 10.8579 50.8843C11.1675 51.6826 11.5096 52.4726 11.8761 53.2464C12.6744 54.9244 13.603 56.5371 14.6863 58.0522C16.8611 61.0823 19.5817 63.5178 22.8074 65.375C24.2491 66.2058 25.7723 66.8249 27.3688 67.2892C28.216 67.5336 29.0713 67.7291 29.9347 67.8757C30.3338 67.949 30.7411 68.0304 31.1484 68.0549C31.7511 68.1689 32.3702 68.1689 32.9729 68.2422C33.1521 68.2666 33.3395 68.2667 33.5268 68.2748C34.5287 68.3074 35.5306 68.3155 36.5244 68.283C36.8502 68.2667 37.176 68.2585 37.5018 68.2096C37.5996 68.1933 37.7055 68.1851 37.8032 68.177C39.3101 68.0303 40.7845 67.7046 42.2181 67.2159C43.6517 66.7271 45.0038 66.0593 46.2908 65.2529C47.8873 64.251 49.3209 63.0372 50.6161 61.6606C51.0233 61.2289 51.4143 60.781 51.789 60.3248C51.8705 60.2271 51.9438 60.1374 52.0171 60.0315C52.066 59.9663 52.0904 59.8848 52.0822 59.8034C52.0497 59.5183 51.9764 59.2413 51.9112 58.9644C51.6831 58.0276 51.3492 57.1318 50.9012 56.2765C50.4043 55.3479 49.7934 54.5171 49.0358 53.7921C47.871 52.6762 46.4945 51.9595 44.9224 51.6255C44.2789 51.487 43.6354 51.4055 42.9837 51.3974C42.8779 51.3974 42.7801 51.3892 42.6824 51.3811C42.6091 51.3729 42.5195 51.2997 42.5113 51.2345C42.4787 50.9494 42.4706 50.6643 42.5194 50.3792C42.5276 50.3466 42.5683 50.3142 42.6009 50.2897C42.6172 50.2734 42.6416 50.2734 42.6579 50.2734C42.7231 50.2653 42.7801 50.2571 42.8371 50.249C42.9838 50.249 43.1222 50.249 43.2688 50.249C49.0847 50.249 54.9087 50.249 60.7246 50.249C60.9527 50.249 61.1726 50.2327 61.4007 50.2734C61.4414 50.2816 61.5147 50.3548 61.5229 50.3955C61.531 50.4362 61.5473 50.4769 61.5473 50.5176C61.5554 50.6235 61.5554 50.7214 61.5554 50.8272C61.5554 51.0146 61.5554 51.1937 61.5554 51.3811C61.5554 54.9162 61.5554 58.4432 61.5554 61.9784C61.5554 63.6971 61.5473 65.4075 61.5392 67.1262C61.5392 67.3135 61.5473 67.4929 61.5554 67.6802C61.5554 67.7454 61.6613 67.8431 61.7184 67.8512C61.8405 67.8594 61.9627 67.8757 62.0849 67.8675C62.4677 67.8512 62.8587 67.843 63.2497 67.8105C64.4552 67.6883 65.62 67.4032 66.7115 66.8493C68.5931 65.9045 69.9453 64.4627 70.7843 62.5322C71.0857 61.8398 71.2812 61.1068 71.4115 60.3656C71.5337 59.6976 71.5662 59.0297 71.5825 58.3537C71.5907 58.1663 71.5825 57.9872 71.5825 57.7998C71.5825 55.5517 71.5825 53.3035 71.5825 51.0635C71.5825 50.8599 71.5662 50.6562 71.607 50.4526C71.6151 50.3874 71.7129 50.2979 71.7699 50.2897C71.9735 50.2816 72.1772 50.2734 72.3808 50.2734H78.9949C79.4429 50.2734 79.8909 50.2734 80.3389 50.2734C80.4611 50.2734 80.5833 50.2816 80.7055 50.2897C80.7788 50.2897 80.8684 50.3711 80.8765 50.4363C80.8847 50.4933 80.901 50.5584 80.901 50.6155C80.901 50.8191 80.901 51.0227 80.901 51.2264C80.901 53.3686 80.901 55.5108 80.901 57.6612C80.901 58.3129 80.9254 58.9644 80.9906 59.6161C81.0965 60.675 81.3408 61.7095 81.797 62.6788C82.8396 64.9514 84.5583 66.4908 86.9205 67.3053C87.792 67.6067 88.6962 67.7779 89.6166 67.8268C90.0891 67.8512 90.5534 67.8675 91.0258 67.8675C91.3923 67.8675 91.7589 67.8675 92.1254 67.8675C92.2232 67.8675 92.3291 67.8839 92.4268 67.892C92.5001 67.9001 92.5816 67.9897 92.5897 68.0549C92.6142 68.2585 92.6142 68.4621 92.5897 68.6658C92.5816 68.7309 92.5001 68.8123 92.4268 68.8205C92.3617 68.8286 92.3046 68.8368 92.2476 68.8368C92.044 68.8368 91.8403 68.8368 91.6367 68.8368H76.2499C71.721 68.8368 67.184 68.8368 62.6551 68.8368C62.2722 68.8368 61.8813 68.8124 61.4903 68.8694C61.4658 68.8694 61.4496 68.8776 61.4251 68.8694C61.0178 68.7961 60.6106 68.8449 60.2033 68.8286C60.1463 68.8286 60.0811 68.8042 60.0241 68.796C59.9834 68.7879 59.9182 68.7146 59.9101 68.6658C59.9019 68.6006 59.8938 68.5436 59.8938 68.4866C59.8938 68.0386 59.8693 68.0549 59.5272 67.8675C57.9877 67.0285 56.4401 66.2058 54.8924 65.3668C54.5503 65.1795 54.1919 65.041 53.8091 64.9514C53.0434 64.7803 52.2696 64.7396 51.5039 64.9269C51.1048 65.0165 50.722 65.1632 50.3717 65.3831C50.2332 65.4646 50.0947 65.5542 49.9563 65.6438C48.4249 66.6294 46.8121 67.4603 45.1016 68.1038C44.0101 68.5111 42.8941 68.8287 41.7538 69.0731C40.9311 69.2441 40.1084 69.3907 39.2857 69.5048C38.7807 69.5781 38.2757 69.6351 37.7706 69.6921C37.062 69.7654 36.3452 69.798 35.6365 69.8387C34.6346 69.8957 33.6327 69.8957 32.639 69.8468C32.3702 69.8305 32.1095 69.8224 31.8407 69.8142C31.3927 69.7979 30.9447 69.7817 30.4967 69.7247C30.4153 69.7166 30.3338 69.7084 30.2523 69.7003C29.4134 69.6595 28.5907 69.5373 27.7598 69.4151C25.2917 69.0404 22.8807 68.4376 20.5429 67.5498C18.2459 66.6863 16.0466 65.603 13.9777 64.2834C9.63611 61.5058 6.1417 57.9057 3.51071 53.4664C2.9894 52.5867 2.50881 51.6906 2.06895 50.7702C2.02823 50.6806 1.9875 50.5829 1.95492 50.4852C1.92234 50.4119 1.9875 50.306 2.06081 50.2979C2.12597 50.2897 2.18299 50.2816 2.24815 50.2816C2.40292 50.249 2.56583 50.249 2.72874 50.249Z" fill="white"/>
  <path d="M94.1048 32.9806C93.9093 32.0846 93.4613 31.3595 92.7282 30.8056C92.5327 30.659 92.3209 30.5287 92.1091 30.4146C91.8159 30.268 91.5145 30.1377 91.205 30.04C90.5045 29.82 89.7795 29.6979 89.0383 29.6653C88.6718 29.649 88.3052 29.649 87.9387 29.649C87.4499 29.649 86.9612 29.649 86.5458 29.649C85.7149 29.6327 84.9574 29.6245 84.208 29.6164C84.0044 29.6164 83.8008 29.6164 83.5971 29.6245C83.5564 29.6245 83.5157 29.6409 83.4831 29.649C83.4424 29.6571 83.4016 29.6896 83.4016 29.7303C83.4016 29.7629 83.4179 29.8037 83.4342 29.8363C83.4749 29.8852 83.532 29.9097 83.589 29.926C83.8171 29.9993 83.9718 30.1458 84.1021 30.3412C84.1673 30.4471 84.2243 30.5531 84.2732 30.6672C84.4117 31.0337 84.4931 31.4083 84.5176 31.7993C84.5339 32.003 84.5339 32.2066 84.5339 32.4102C84.5339 34.9435 84.5339 37.4686 84.5339 40.0019C84.5339 40.1648 84.5339 40.3278 84.5257 40.4907C84.5257 40.8165 84.4605 41.1423 84.3872 41.4599C84.3302 41.6962 84.2406 41.9243 84.094 42.1279C83.98 42.299 83.8252 42.4374 83.6379 42.5189C83.5808 42.5433 83.5238 42.5595 83.4668 42.5839C83.4505 42.5921 83.4424 42.6084 83.4261 42.6247C83.4016 42.6573 83.3935 42.6981 83.4179 42.7388C83.4261 42.7551 83.4424 42.7713 83.4586 42.7794C83.5075 42.8201 83.5727 42.8202 83.6297 42.8202C84.6886 42.8202 85.7557 42.8202 86.8146 42.8202C86.8716 42.8202 86.9368 42.8039 86.9938 42.7957C87.0427 42.7876 87.0589 42.7551 87.0671 42.7144C87.0752 42.6737 87.0752 42.6328 87.0427 42.6002C86.9775 42.5432 86.896 42.527 86.8309 42.4944C86.6354 42.4048 86.4888 42.2664 86.3829 42.0872C86.3421 42.022 86.3014 41.9487 86.2688 41.8754C86.1385 41.574 86.0408 41.2643 86.0163 40.9304C85.9919 40.6453 85.9756 40.3603 85.9675 40.0753C85.9593 39.668 85.9675 39.2607 85.9675 38.8534C85.9675 38.8127 85.9675 38.7719 85.9675 38.7311C85.9675 38.6904 85.9756 38.6498 85.9756 38.609C85.9837 38.4624 86.0652 38.3728 86.1955 38.3728C86.4155 38.3646 86.6435 38.3646 86.8716 38.3565C87.6862 38.3565 88.5007 38.3645 89.3153 38.2831C89.9669 38.2179 90.6104 38.1039 91.2294 37.9084C91.6367 37.7781 92.0358 37.6071 92.4024 37.3872C92.7689 37.1673 93.1029 36.8903 93.3798 36.5645C93.8849 35.9617 94.1292 35.2612 94.2025 34.4955C94.2351 33.9986 94.2188 33.4856 94.1048 32.9806ZM92.7771 34.3163C92.7608 34.4793 92.7445 34.6422 92.7282 34.8051C92.5816 35.8559 92.0766 36.6786 91.1724 37.2488C90.8955 37.4198 90.6022 37.5583 90.2927 37.6642C89.7551 37.8516 89.1931 37.9656 88.6229 38.0226C87.8735 38.0877 87.116 38.1039 86.3584 38.0876C86.277 38.0876 86.1955 38.0715 86.1141 38.0552C86.0733 38.047 85.9919 37.9736 85.9838 37.941C85.9756 37.884 85.9593 37.8189 85.9512 37.7619C85.943 37.5745 85.943 37.3954 85.943 37.208C85.943 36.1247 85.943 35.0495 85.943 33.9661C85.943 32.8665 85.943 31.7668 85.943 30.6672C85.943 30.488 85.9349 30.3007 85.9675 30.1215C85.9837 30.0482 86.0571 29.9747 86.1304 29.9666C86.1711 29.9666 86.2118 29.9503 86.2525 29.9503C86.9042 29.9503 87.5558 29.9421 88.2075 29.9666C88.8835 29.991 89.5433 30.1052 90.1868 30.317C90.48 30.4147 90.757 30.5369 91.0258 30.6835C91.8241 31.1396 92.3617 31.7994 92.6142 32.6872C92.6712 32.8827 92.7201 33.0782 92.7364 33.2818C92.7445 33.4203 92.7689 33.567 92.7771 33.7054C92.7934 33.9091 92.7934 34.1127 92.7771 34.3163Z" fill="white"/>
  <path d="M95.5303 41.1992C95.5954 40.7757 95.6361 40.352 95.6361 39.9203C95.628 37.4685 95.628 35.0169 95.6361 32.5733C95.6361 32.1416 95.5954 31.718 95.5303 31.2944C95.4895 31.0337 95.3999 30.7813 95.2859 30.5369C95.2289 30.431 95.1637 30.325 95.0904 30.2273C95.0008 30.1133 94.8868 30.0236 94.7564 29.9666C94.6831 29.934 94.6098 29.9015 94.5365 29.8608C94.4958 29.8445 94.4713 29.8037 94.4876 29.7548C94.4958 29.7222 94.5202 29.6816 94.5528 29.6653C94.5854 29.6409 94.6261 29.6327 94.6668 29.6327C94.7727 29.6245 94.8705 29.6164 94.9682 29.6164C95.8887 29.6164 96.8091 29.6164 97.7214 29.6164C97.8436 29.6164 97.9658 29.6083 98.0879 29.649C98.1287 29.6653 98.1613 29.6896 98.1775 29.7303C98.1938 29.7711 98.1531 29.8608 98.1042 29.8771C98.0879 29.8852 98.0716 29.8934 98.0472 29.9016C98.0309 29.9097 98.0065 29.9179 97.9902 29.926C97.7377 29.9993 97.5748 30.1702 97.4444 30.3902C97.2978 30.6345 97.2082 30.9115 97.1431 31.1884C97.0535 31.612 97.029 32.0356 97.029 32.4673C97.029 35.4241 97.029 38.389 97.029 41.3458C97.029 41.6961 97.0127 42.0382 97.0453 42.3884C97.0535 42.4618 97.1268 42.5352 97.2082 42.5434C97.249 42.5434 97.2897 42.5513 97.3304 42.5595C97.3956 42.5595 97.4526 42.5595 97.5177 42.5595C98.316 42.5595 99.1143 42.5595 99.9044 42.5595C99.9695 42.5595 100.027 42.5595 100.092 42.5595C100.385 42.5595 100.654 42.47 100.906 42.3316C101.142 42.2012 101.354 42.0383 101.533 41.8509C101.941 41.4355 102.25 40.963 102.413 40.401C102.446 40.3032 102.478 40.2054 102.519 40.1158C102.535 40.0832 102.576 40.0671 102.617 40.0508C102.658 40.0345 102.747 40.1077 102.747 40.1566C102.755 40.2218 102.763 40.2787 102.763 40.3358C102.763 41.0526 102.763 41.7613 102.763 42.4781C102.763 42.5351 102.747 42.6003 102.739 42.6573C102.731 42.7225 102.649 42.8039 102.568 42.8039C102.503 42.812 102.446 42.8202 102.389 42.8202C102.226 42.8202 102.063 42.8202 101.9 42.8202H98.5278C97.3467 42.8202 96.1575 42.8202 94.9764 42.8202C94.8379 42.8202 94.6913 42.8364 94.5528 42.7957C94.5039 42.7794 94.4876 42.7551 94.4795 42.7144C94.4713 42.6737 94.4713 42.6328 94.5121 42.6084C94.5609 42.5758 94.618 42.5515 94.675 42.5271C94.9356 42.4293 95.1148 42.2337 95.2452 41.9975C95.3918 41.7531 95.4814 41.4762 95.5303 41.1992Z" fill="white"/>
  <path d="M113.19 31.547C113.165 31.8891 113.141 32.2391 113.149 32.5894C113.149 34.2429 113.149 35.8965 113.149 37.5501C113.149 37.9573 113.133 38.3646 113.092 38.7719C113.027 39.4317 112.856 40.0589 112.554 40.6454C111.927 41.8591 110.958 42.633 109.63 42.9588C109.247 43.0565 108.864 43.0727 108.473 43.0727C107.977 43.0809 107.504 42.9912 107.032 42.8365C106.03 42.5025 105.223 41.9161 104.604 41.0608C104.189 40.4906 103.92 39.8552 103.749 39.1792C103.668 38.8452 103.611 38.5031 103.594 38.1528C103.57 37.7293 103.554 37.2975 103.554 36.8658C103.554 35.4159 103.554 33.9661 103.554 32.5162C103.554 32.166 103.537 31.8238 103.505 31.4736C103.472 31.1478 103.383 30.8302 103.244 30.5369C103.203 30.4473 103.146 30.3577 103.089 30.2762C102.983 30.1296 102.845 29.9991 102.666 29.934C102.584 29.9095 102.511 29.877 102.454 29.82C102.429 29.7956 102.429 29.6734 102.47 29.649C102.503 29.6327 102.544 29.6082 102.576 29.6001C102.674 29.5919 102.78 29.5838 102.877 29.5838C103.798 29.5838 104.71 29.5838 105.631 29.5838C105.737 29.5838 105.834 29.6001 105.932 29.6082C105.973 29.6082 106.054 29.6896 106.054 29.7303C106.062 29.7711 106.005 29.8527 105.956 29.8771C105.899 29.9015 105.842 29.9258 105.785 29.9421C105.606 30.0154 105.476 30.1378 105.37 30.2925C105.297 30.4147 105.223 30.5369 105.166 30.6672C105.077 30.8953 105.012 31.1314 104.979 31.3757C104.93 31.7586 104.898 32.1497 104.898 32.5325C104.898 34.129 104.906 35.7173 104.898 37.3057C104.898 37.8188 104.93 38.324 105.003 38.829C105.093 39.4806 105.272 40.1078 105.565 40.6943C105.777 41.1179 106.046 41.5006 106.388 41.8265C106.885 42.307 107.48 42.6167 108.156 42.7388C108.579 42.8121 109.011 42.8121 109.435 42.7144C110.591 42.4537 111.455 41.7775 112.066 40.7757C112.359 40.3032 112.546 39.7901 112.676 39.2444C112.782 38.8045 112.823 38.3564 112.823 37.9084C112.823 37.436 112.831 36.9717 112.831 36.4993C112.831 36.0268 112.831 35.5626 112.831 35.0901H112.848C112.848 34.2348 112.848 33.3796 112.848 32.5162C112.848 32.166 112.831 31.8238 112.799 31.4736C112.766 31.164 112.693 30.8707 112.562 30.5938C112.514 30.4798 112.457 30.374 112.383 30.2762C112.277 30.1215 112.147 29.9993 111.968 29.926C111.895 29.8934 111.813 29.877 111.756 29.8119C111.732 29.7874 111.723 29.7386 111.732 29.6979C111.732 29.6572 111.772 29.6245 111.805 29.6164C111.846 29.6001 111.886 29.5919 111.919 29.5919C112.636 29.5919 113.344 29.5919 114.061 29.5919C114.126 29.5919 114.175 29.6164 114.224 29.6572C114.265 29.6816 114.265 29.7956 114.232 29.82C114.167 29.877 114.094 29.9014 114.021 29.934C113.817 30.0073 113.678 30.1541 113.564 30.3251C113.458 30.4799 113.385 30.6427 113.336 30.8219C113.271 31.0663 113.206 31.3026 113.19 31.547Z" fill="white"/>
  <path d="M121.074 35.2448C121.009 35.3344 121.001 35.4323 121.05 35.53C121.107 35.6359 121.172 35.7417 121.229 35.8476C122.101 37.2731 122.972 38.7067 123.844 40.1321C123.974 40.3439 124.105 40.5475 124.243 40.743C124.349 40.8897 124.463 41.0363 124.585 41.1748C124.854 41.4924 125.18 41.7369 125.571 41.8754C125.628 41.8917 125.685 41.9162 125.742 41.9406C125.783 41.9569 125.807 41.9894 125.799 42.0301C125.799 42.0464 125.766 42.0546 125.75 42.0627C125.652 42.1034 125.546 42.0953 125.449 42.0953C124.878 42.0953 124.308 42.0953 123.738 42.0953C123.225 42.0953 122.72 42.0953 122.207 42.0953C122.085 42.0953 121.962 42.0871 121.84 42.0709C121.824 42.0709 121.799 42.0545 121.791 42.0382C121.775 42.0057 121.783 41.965 121.824 41.9406C121.873 41.908 121.93 41.8835 121.987 41.8591C122.101 41.7939 122.142 41.6798 122.15 41.5494C122.15 41.5087 122.15 41.4681 122.15 41.4273C122.125 41.2644 122.085 41.1096 122.019 40.9548C121.905 40.6942 121.759 40.4417 121.612 40.2055C121.148 39.4398 120.675 38.6741 120.211 37.9084C120.016 37.5908 119.828 37.2813 119.633 36.9718C119.6 36.9229 119.559 36.8741 119.511 36.8334C119.486 36.8089 119.437 36.8008 119.397 36.8252C119.364 36.8415 119.331 36.874 119.307 36.8984C119.225 36.9961 119.152 37.094 119.079 37.1836C118.313 38.1936 117.547 39.1955 116.782 40.2055C116.66 40.3684 116.546 40.5314 116.432 40.7025C116.309 40.8898 116.228 41.1016 116.187 41.3215C116.163 41.4274 116.171 41.5251 116.212 41.6228C116.244 41.6961 116.285 41.7613 116.35 41.8183C116.432 41.8835 116.537 41.8916 116.603 41.973C116.611 41.9893 116.619 42.0219 116.603 42.0301C116.554 42.0708 116.489 42.079 116.432 42.079C115.837 42.079 115.25 42.079 114.656 42.079C114.615 42.079 114.574 42.0627 114.542 42.0546C114.526 42.0464 114.517 42.0301 114.509 42.0138C114.509 41.9975 114.509 41.9649 114.517 41.9567C114.566 41.9241 114.623 41.8998 114.68 41.8754C114.99 41.7532 115.242 41.5578 115.479 41.3215C115.78 41.012 116.049 40.6779 116.309 40.3358C116.733 39.7819 117.148 39.2281 117.564 38.6743C118.053 38.0226 118.549 37.3709 119.038 36.7192C119.103 36.6378 119.16 36.5563 119.209 36.4667C119.242 36.4178 119.258 36.3608 119.225 36.2956C119.16 36.1897 119.111 36.0839 119.046 35.9781C118.191 34.5689 117.328 33.1516 116.472 31.7424C116.375 31.5877 116.277 31.4329 116.171 31.2781C116.081 31.1396 115.984 31.0093 115.886 30.879C115.536 30.4065 115.104 30.0563 114.517 29.9016C114.46 29.8853 114.452 29.8444 114.493 29.8119C114.509 29.7956 114.517 29.7792 114.534 29.7711C114.55 29.763 114.574 29.7548 114.591 29.7466C114.648 29.7385 114.713 29.7305 114.77 29.7305C115.91 29.7305 117.059 29.7305 118.199 29.7305C118.281 29.7305 118.362 29.7466 118.443 29.7548C118.484 29.7629 118.509 29.7956 118.517 29.8363C118.517 29.8445 118.492 29.8689 118.476 29.8771C118.403 29.9178 118.329 29.9422 118.264 29.991C118.175 30.0481 118.126 30.1377 118.118 30.2436C118.11 30.3251 118.118 30.4065 118.134 30.488C118.183 30.6672 118.24 30.8382 118.329 31.0011C118.403 31.1477 118.476 31.2943 118.566 31.4328C119.242 32.5487 119.926 33.6648 120.61 34.7807C120.651 34.8459 120.708 34.911 120.757 34.968C120.789 35.0006 120.838 35.0006 120.863 34.9762C120.912 34.9354 120.952 34.8946 120.993 34.8457C121.824 33.7868 122.647 32.7198 123.469 31.6528C123.657 31.4084 123.836 31.1641 123.974 30.8871C124.048 30.7405 124.105 30.5857 124.113 30.4228C124.113 30.3658 124.113 30.3006 124.096 30.2436C124.08 30.1377 124.023 30.0481 123.934 29.9992C123.86 29.9585 123.787 29.9341 123.714 29.9016C123.665 29.8771 123.648 29.8444 123.681 29.8119C123.689 29.7956 123.705 29.7792 123.722 29.7711C123.738 29.763 123.762 29.7466 123.779 29.7466C124.414 29.7222 125.041 29.7222 125.677 29.7466C125.717 29.7466 125.758 29.7711 125.791 29.7874C125.807 29.7956 125.815 29.82 125.823 29.8363C125.823 29.8526 125.823 29.8771 125.815 29.8771C125.783 29.9015 125.75 29.926 125.709 29.9342C125.44 29.9993 125.221 30.1459 125.025 30.3251C124.878 30.4636 124.732 30.6101 124.593 30.7648C124.406 30.9766 124.219 31.1966 124.048 31.4247C123.111 32.6139 122.182 33.8032 121.254 34.9925C121.197 35.0821 121.132 35.1634 121.074 35.2448Z" fill="white"/>
  <path d="M127.746 22.9369H120.024C119.82 22.9369 119.616 22.9532 119.413 22.9125C119.372 22.9043 119.299 22.8229 119.291 22.7822C119.291 22.7415 119.282 22.7008 119.282 22.6601C119.291 22.5787 119.299 22.4972 119.315 22.4157C119.38 22.0736 119.454 21.7315 119.494 21.3894C119.559 20.8029 119.641 20.2165 119.665 19.6219C119.69 18.8073 119.69 17.9846 119.665 17.1701C119.649 16.8198 119.625 16.4777 119.584 16.1356C119.535 15.7283 119.494 15.321 119.429 14.9219C119.152 13.2195 118.647 11.5904 117.849 10.0509C116.521 7.49324 114.094 4.87849 110.526 3.48561C109.687 3.1598 108.832 2.90734 107.944 2.72814C107.463 2.63039 106.983 2.55705 106.494 2.49189C105.557 2.36156 104.621 2.35328 103.684 2.35328C102.438 2.34514 101.191 2.35328 99.9451 2.35328H93.388C89.5107 2.35328 85.6253 2.35328 81.7481 2.35328C81.52 2.35328 81.3001 2.36144 81.072 2.36959C81.0069 2.36959 80.9091 2.46748 80.901 2.5245C80.901 2.56523 80.8847 2.60588 80.8847 2.64661C80.8847 2.72806 80.8847 2.80956 80.8765 2.89101V22.0003C80.8765 22.2446 80.8684 22.4889 80.8602 22.7333C80.8602 22.7903 80.7543 22.9045 80.7055 22.9045C80.6403 22.9127 80.5833 22.9206 80.5263 22.9288C80.3634 22.9288 80.2005 22.9288 80.0376 22.9288H72.3808C72.1772 22.9288 71.9735 22.9206 71.7699 22.9125C71.6803 22.9125 71.5825 22.8066 71.5744 22.7088C71.5662 22.6274 71.5581 22.5461 71.5581 22.4646C71.5581 22.2773 71.5581 22.0979 71.5581 21.9106C71.5581 18.5221 71.5581 15.1336 71.5581 11.745C71.5581 11.297 71.5418 10.8491 71.5092 10.4011C71.4359 9.3585 71.2078 8.34034 70.8087 7.37103C69.8883 5.14731 68.3162 3.56704 66.1006 2.63845C65.2861 2.29634 64.4389 2.10081 63.5592 1.98677C62.932 1.90532 62.2967 1.88098 61.6613 1.88098C61.3111 1.88098 60.969 1.88098 60.6187 1.88098C60.521 1.88098 60.4151 1.88914 60.3173 1.89728C60.2359 1.89728 60.1544 1.97868 60.1544 2.04385C60.1463 2.10901 60.1381 2.16601 60.1381 2.22302C60.1381 2.42666 60.1381 2.6303 60.1381 2.83394C60.1381 8.94305 60.1381 15.044 60.1381 21.1531C60.1381 21.373 60.1626 21.6012 60.1137 21.8211C60.1055 21.8618 60.0404 21.9432 59.9915 21.9514C59.9752 21.9514 59.9508 21.9677 59.9345 21.9677C59.6901 21.9921 59.4458 21.9921 59.2014 21.9677C59.1118 21.9595 59.0466 21.9107 59.0059 21.8374C58.9489 21.7315 58.8919 21.6255 58.8349 21.5115C57.8818 19.5891 56.8881 17.6913 55.8292 15.8341C55.4219 15.1254 55.0146 14.4169 54.5911 13.7164C53.2878 11.5578 51.7483 9.57847 49.9481 7.80276C48.0747 5.94559 45.9324 4.47129 43.5376 3.35536C42.3077 2.78517 41.0451 2.34523 39.7256 2.04385C39.188 1.92167 38.6503 1.82382 38.1046 1.73422C37.6403 1.66091 37.176 1.62835 36.7117 1.55504C36.5488 1.5306 36.3859 1.53076 36.223 1.51447C35.8972 1.49003 35.5714 1.46553 35.2455 1.44109C35.0826 1.43294 34.9197 1.42478 34.7568 1.41663C33.9585 1.39219 33.1684 1.39219 32.3702 1.41663C32.1828 1.44107 31.9792 1.45741 31.7756 1.4737C31.6697 1.48185 31.5719 1.49816 31.4742 1.49816C30.7981 1.51446 30.1302 1.58772 29.4622 1.66103C29.0794 1.70176 28.6884 1.75059 28.3056 1.81575C27.5806 1.93793 26.8638 2.07642 26.147 2.23933C24.2002 2.69548 22.3512 3.38792 20.6081 4.34908C18.645 5.43243 16.8774 6.76011 15.3298 8.38921C14.2302 9.54587 13.2853 10.8246 12.4544 12.1931C11.3222 14.0503 10.4507 16.0215 9.79087 18.0904C9.43247 19.1982 9.13923 20.3224 8.91116 21.4627C8.82971 21.8863 8.7401 22.3016 8.65051 22.717C8.63421 22.8066 8.52017 22.9043 8.43872 22.9125C8.35727 22.9206 8.27581 22.9288 8.19435 22.9288C5.60409 22.9288 3.00568 22.9288 0.415421 22.9288C0.333967 22.9288 0.252509 22.9206 0.171054 22.9125C0.130327 22.9043 0.0896001 22.8882 0.0570181 22.8719C0.0325817 22.8475 0 22.8066 0 22.7659C0 22.7089 0.0162917 22.6437 0.0325827 22.5867C0.358402 21.4871 0.741243 20.4119 1.1811 19.3612C2.06896 17.2433 3.14416 15.2313 4.46373 13.3497C6.95624 9.78196 10.0841 6.89857 13.8473 4.70744C16.4946 3.16794 19.2966 2.01943 22.2535 1.24561C23.1983 0.993097 24.1595 0.78129 25.1207 0.610235C25.7804 0.488053 26.4484 0.406694 27.1163 0.300802C27.6865 0.260075 28.2486 0.154025 28.8187 0.137734C28.9002 0.137734 28.9817 0.129572 29.0631 0.121427C29.6333 0.0399719 30.2035 0.0398764 30.7737 0.0235854C32.1177 -0.017142 33.4698 -0.000835093 34.8138 0.0398923C35.0989 0.0480378 35.384 0.0727288 35.6691 0.0971652C35.8727 0.113456 36.0764 0.129596 36.28 0.145887C36.5895 0.170323 36.8909 0.178556 37.1923 0.235575C37.2493 0.251866 37.3145 0.251691 37.3715 0.259836C37.9661 0.300564 38.5444 0.406678 39.1309 0.488132C39.9373 0.602169 40.7437 0.748804 41.542 0.911713C42.943 1.20495 44.3196 1.57956 45.6718 2.052C47.3171 2.62218 48.9055 3.31458 50.4369 4.12099C50.6324 4.22688 50.836 4.33267 51.0315 4.43042C51.846 4.81326 52.628 5.25315 53.41 5.69301C53.6625 5.83148 53.9068 5.97812 54.1593 6.11659C54.6318 6.36095 55.1205 6.56456 55.6418 6.69489C55.9839 6.78449 56.326 6.82517 56.6682 6.8496C56.937 6.87404 57.1976 6.81711 57.4501 6.73565C57.7678 6.62976 58.0203 6.42614 58.2077 6.14105C58.4439 5.7745 58.6149 5.38357 58.7371 4.96815C58.8674 4.52015 58.9489 4.05569 58.9978 3.58326C59.0385 3.13526 59.0629 2.68733 59.0548 2.23933C59.0548 1.9298 59.0548 1.62852 59.0548 1.31899C59.0548 1.23753 59.0711 1.15604 59.0792 1.07458C59.0874 1.00127 59.1688 0.90356 59.234 0.90356C59.4702 0.887269 59.6983 0.862777 59.9182 0.846486C59.9752 0.83834 60.0404 0.846502 60.0974 0.862793C60.2359 0.90352 60.3825 0.90356 60.521 0.90356C60.7246 0.90356 60.9282 0.90356 61.1319 0.90356C77.7568 0.90356 94.3736 0.90356 110.999 0.90356C111.406 0.90356 111.813 0.903568 112.22 0.911713C112.628 0.911713 113.035 0.919724 113.442 0.976742C113.524 0.984888 113.605 0.993049 113.687 0.993049C115.307 1.10709 116.88 1.43287 118.403 1.97862C119.616 2.41848 120.773 2.98059 121.856 3.6811C123.86 4.98438 125.457 6.67861 126.654 8.74756C127.469 10.1486 128.071 11.6392 128.454 13.2194C128.585 13.757 128.69 14.2946 128.772 14.8404C128.91 15.7934 129 16.7464 129 17.7076C129 18.2208 128.992 18.7259 128.984 19.239C128.976 19.5649 128.951 19.8906 128.91 20.2165C128.862 20.6645 128.813 21.1124 128.748 21.5522C128.699 21.8781 128.625 22.1957 128.568 22.5133C128.552 22.6111 128.511 22.7089 128.471 22.8067C128.446 22.8718 128.389 22.8962 128.332 22.9125C128.275 22.9288 128.21 22.9288 128.153 22.9369C128.031 22.9369 127.884 22.9369 127.746 22.9369Z" fill="white"/>
</svg>